<?xml version="1.0" encoding="utf-8"?>
<!-- Generator: Adobe Illustrator 18.1.1, SVG Export Plug-In . SVG Version: 6.00 Build 0)  -->
<svg version="1.1" id="Layer_1" xmlns="http://www.w3.org/2000/svg" xmlns:xlink="http://www.w3.org/1999/xlink" x="0px" y="0px"
	 viewBox="-295 150 200 313" enable-background="new -295 150 200 313" xml:space="preserve">
<g transform="translate(0.000000,313.000000) scale(0.100000,-0.100000)">
	<path fill="#4089A9" stroke="#373A48" stroke-miterlimit="10" d="M-2040,1599c-198-93-534-213-771-275l-139-37V311v-976l24-90
		c95-354,370-628,720-720c85-22,119-25,256-25c134,0,172,4,254,25c349,88,626,365,722,720l24,90v976v976l-142,38
		c-244,65-558,177-770,274c-37,17-78,31-90,31C-1965,1629-2004,1615-2040,1599z M-1935,1252c10-60,16-65,61-53c22,6,50,11,63,11
		c21,0,18-4-22-31c-26-17-47-35-47-39c0-5,30-6,68-3c52,4,85,0,152-18l85-24l-83-7c-85-7-152-24-152-37c0-5,27-18,60-30
		c66-24,141-79,183-134c15-19,27-38,27-41s-26,11-57,31c-82,52-233,102-233,77c0-3,11-20,24-37c26-34,69-134,64-149
		c-2-5-20,14-41,41c-21,28-59,64-85,81l-47,31l-7-38c-4-21-4-154-1-295c5-223,8-258,22-258c12,0,12-3,3-12c-19-19-14-28,16-28
		c23-1,21-3-20-22l-48-21l-47,21c-36,16-42,21-24,22c18,0,22,4,18,20c-3,11,0,18,7,17c14-3,31,492,19,554l-8,40l-47-31
		c-26-17-63-53-84-80s-40-48-42-45c-8,8,30,98,59,143c16,24,29,45,29,48c0,23-154-28-233-79c-31-20-57-34-57-31s12,22,28,41
		c41,55,116,110,182,134c33,12,60,25,60,30c0,13-67,30-152,37l-83,7l85,24c67,18,100,22,153,18c37-3,67-2,67,3c0,4-21,22-47,39
		c-40,27-43,31-22,31c13,0,41-5,63-11c45-12,51-7,61,53c4,21,10,38,15,38S-1939,1273-1935,1252z M-2195,209c44-16,118-52,164-80
		l83-51l27,19c88,65,255,136,347,148c47,6,46,5-42-33c-50-21-115-53-145-71c-110-67-138-86-139-92c0-3,25-23,54-43
		c40-28,61-36,76-31c18,6,21,4,16-12c-9-28,70-75,114-67c36,8,57-11,38-33c-17-21-65-15-130,18c-51,26-65,29-81,19
		c-24-14-32-7-19,17c9,15,2,23-49,55c-33,21-64,38-69,38s-36-17-69-38c-51-32-58-40-49-55c13-24,5-31-19-17c-16,10-30,7-81-19
		c-65-33-113-39-130-18c-19,22,2,41,38,33c44-8,123,39,114,67c-5,16-2,18,16,12c15-5,36,3,76,31c29,20,54,40,54,43
		c-1,6-29,25-139,92c-30,18-95,50-145,71c-88,38-89,39-41,33C-2298,241-2239,225-2195,209z M-2046-440c31-11,62-59,77-117
		c6-24,15-43,19-43s13,19,19,43c15,59,46,106,79,118c41,16,118,4,207-32c55-22,103-34,152-37c68-4,72-6,68-26c-8-32-61-278-87-398
		l-23-108l-35,6c-19,4-64,16-100,27c-109,33-202,23-262-31c-16-14-20-14-35,0c-61,54-154,64-263,31c-36-11-81-23-100-27l-35-6
		l-23,108c-27,127-80,368-87,400c-5,21-2,22,49,22s100,13,226,59C-2140-429-2085-425-2046-440z"/>
	<path fill="#4089A9" stroke="#373A48" stroke-miterlimit="10" d="M-2247-657c-26-13-33-23-33-46c0-24,3-28,20-24c19,5,20,0,20-79
		v-84h35h35v125c0,123,0,125-22,124C-2205-641-2230-649-2247-657z"/>
	<path fill="#4089A9" stroke="#373A48" stroke-miterlimit="10" d="M-2125-665c-18-17-25-35-25-64c0-49,26-71,83-71c35,0,38-2,26-16
		c-10-12-24-15-56-10c-42,5-43,5-43-23c0-67,129-51,166,21c25,49,15,135-20,165C-2032-631-2092-631-2125-665z"/>
	<path fill="#4089A9" stroke="#373A48" stroke-miterlimit="10" d="M-1950-716v-75l48,3c41,3,47,1,47-17s-6-20-52-18
		c-50,2-53,1-53-23c0-70,159-50,173,22c11,60-39,115-93,101c-13-3-20,0-20,9c0,10,14,14,50,14c49,0,50,1,50,30v30h-75h-75V-716z"/>
	<path fill="#4089A9" stroke="#373A48" stroke-miterlimit="10" d="M-1790-670c0-29,1-30,50-30c28,0,50-2,50-4s-18-36-40-76
		c-50-91-51-110-7-110c31,0,33,3,75,101c23,55,42,111,42,125c0,24-2,24-85,24h-85V-670z"/>
</g>
</svg>
